{
  "accessors": [
    {
      "bufferView": 2,
      "componentType": 5126,
      "count": 4,
      "max": [
        1.0,
        1.0,
        0.0
      ],
      "min": [
        -1.0,
        -1.0,
        0.0
      ],
      "type": "VEC3"
    },
    {
      "bufferView": 2,
      "byteOffset": 48,
      "componentType": 5126,
      "count": 4,
      "max": [
        0.0,
        0.0,
        1.0
      ],
      "min": [
        0.0,
        0.0,
        1.0
      ],
      "type": "VEC3"
    },
    {
      "bufferView": 1,
      "componentType": 5126,
      "count": 4,
      "max": [
        0.9228418469429016,
        0.9228418469429016
      ],
      "min": [
        0.07715827226638794,
        0.07715827226638794
      ],
      "type": "VEC2"
    },
    {
      "bufferView": 0,
      "componentType": 5125,
      "count": 6,
      "type": "SCALAR"
    },
    {
      "bufferView": 2,
      "byteOffset": 96,
      "componentType": 5126,
      "count": 20,
      "max": [
        1.0,
        1.0,
        1.0
      ],
      "min": [
        -1.0,
        -1.0,
        -1.0
      ],
      "type": "VEC3"
    },
    {
      "bufferView": 2,
      "byteOffset": 336,
      "componentType": 5126,
      "count": 20,
      "max": [
        1.0,
        0.0,
        1.0
      ],
      "min": [
        -1.0,
        -1.0,
        -1.0
      ],
      "type": "VEC3"
    },
    {
      "bufferView": 1,
      "byteOffset": 32,
      "componentType": 5126,
      "count": 20,
      "max": [
        1.137195348739624,
        0.5406103134155273
      ],
      "min": [
        1.043980360031128,
        0.3852517008781433
      ],
      "type": "VEC2"
    },
    {
      "bufferView": 0,
      "byteOffset": 24,
      "componentType": 5125,
      "count": 30,
      "type": "SCALAR"
    },
    {
      "bufferView": 2,
      "byteOffset": 576,
      "componentType": 5126,
      "count": 4,
      "max": [
        1.0,
        1.0,
        1.0
      ],
      "min": [
        -1.0,
        1.0,
        -1.0
      ],
      "type": "VEC3"
    },
    {
      "bufferView": 2,
      "byteOffset": 624,
      "componentType": 5126,
      "count": 4,
      "max": [
        0.0,
        1.0,
        0.0
      ],
      "min": [
        0.0,
        1.0,
        0.0
      ],
      "type": "VEC3"
    },
    {
      "bufferView": 1,
      "byteOffset": 192,
      "componentType": 5126,
      "count": 4,
      "max": [
        0.9934945702552795,
        0.9862333536148071
      ],
      "min": [
        0.0033873198553919792,
        -0.003874063491821289
      ],
      "type": "VEC2"
    },
    {
      "bufferView": 0,
      "byteOffset": 144,
      "componentType": 5125,
      "count": 6,
      "type": "SCALAR"
    },
    {
      "bufferView": 2,
      "byteOffset": 672,
      "componentType": 5126,
      "count": 4397,
      "max": [
        8.396707534790039,
        5.155153751373291,
        10.520566940307617
      ],
      "min": [
        -8.396707534790039,
        -6.206238746643066,
        -22.67405128479004
      ],
      "type": "VEC3"
    },
    {
      "bufferView": 2,
      "byteOffset": 53436,
      "componentType": 5126,
      "count": 4397,
      "max": [
        1.0,
        0.9999920129776001,
        0.9999991655349731
      ],
      "min": [
        -1.0,
        -0.9999920129776001,
        -1.0
      ],
      "type": "VEC3"
    },
    {
      "bufferView": 3,
      "componentType": 5126,
      "count": 4397,
      "max": [
        1.0,
        0.99965900182724,
        0.997819185256958,
        1.0
      ],
      "min": [
        -0.9999768137931824,
        -0.9999947547912598,
        -0.9768739938735962,
        -1.0
      ],
      "type": "VEC4"
    },
    {
      "bufferView": 1,
      "byteOffset": 224,
      "componentType": 5126,
      "count": 4397,
      "max": [
        0.9861087203025818,
        0.993999183177948
      ],
      "min": [
        0.0060007874853909016,
        0.0060007874853909016
      ],
      "type": "VEC2"
    },
    {
      "bufferView": 0,
      "byteOffset": 168,
      "componentType": 5125,
      "count": 20172,
      "type": "SCALAR"
    }
  ],
  "asset": {
    "extras": {
      "author": "KlyuckySnyuKi (https://sketchfab.com/KlyuckySnyuKi)",
      "license": "CC-BY-4.0 (http://creativecommons.org/licenses/by/4.0/)",
      "source": "https://sketchfab.com/3d-models/pepe-the-frog-93b1e1d670704a848fda364e28b8f0ea",
      "title": "Pepe the Frog"
    },
    "generator": "Sketchfab-12.68.0",
    "version": "2.0"
  },
  "bufferViews": [
    {
      "buffer": 0,
      "byteLength": 80856,
      "name": "floatBufferViews",
      "target": 34963
    },
    {
      "buffer": 0,
      "byteLength": 35400,
      "byteOffset": 80856,
      "byteStride": 8,
      "name": "floatBufferViews",
      "target": 34962
    },
    {
      "buffer": 0,
      "byteLength": 106200,
      "byteOffset": 116256,
      "byteStride": 12,
      "name": "floatBufferViews",
      "target": 34962
    },
    {
      "buffer": 0,
      "byteLength": 70352,
      "byteOffset": 222456,
      "byteStride": 16,
      "name": "floatBufferViews",
      "target": 34962
    }
  ],
  "buffers": [
    {
      "byteLength": 292808,
      "uri": "scene.bin"
    }
  ],
  "images": [
    {
      "uri": "textures/Text_baseColor.png"
    },
    {
      "uri": "textures/Screen_baseColor.png"
    },
    {
      "uri": "textures/FrogMaterial.001_baseColor.png"
    },
    {
      "uri": "textures/FrogMaterial.001_metallicRoughness.png"
    },
    {
      "uri": "textures/FrogMaterial.001_normal.png"
    }
  ],
  "materials": [
    {
      "emissiveFactor": [
        1.0,
        1.0,
        1.0
      ],
      "emissiveTexture": {
        "index": 0
      },
      "name": "Text",
      "pbrMetallicRoughness": {
        "baseColorTexture": {
          "index": 0
        },
        "metallicFactor": 0.0,
        "roughnessFactor": 0.9577051495
      }
    },
    {
      "doubleSided": true,
      "name": "Black",
      "pbrMetallicRoughness": {
        "baseColorFactor": [
          0.0133142929,
          0.0131214769,
          0.0131214769,
          1.0
        ],
        "metallicFactor": 0.0,
        "roughnessFactor": 0.9577051495
      }
    },
    {
      "doubleSided": true,
      "emissiveFactor": [
        0.7926829268,
        0.7926829268,
        0.7926829268
      ],
      "emissiveTexture": {
        "index": 1
      },
      "name": "Screen",
      "pbrMetallicRoughness": {
        "baseColorTexture": {
          "index": 1
        },
        "metallicFactor": 0.0,
        "roughnessFactor": 0.9577051495
      }
    },
    {
      "doubleSided": true,
      "name": "FrogMaterial.001",
      "normalTexture": {
        "index": 4
      },
      "pbrMetallicRoughness": {
        "baseColorTexture": {
          "index": 2
        },
        "metallicFactor": 0.0,
        "metallicRoughnessTexture": {
          "index": 3
        }
      }
    }
  ],
  "meshes": [
    {
      "name": "Plane_Text_0",
      "primitives": [
        {
          "attributes": {
            "NORMAL": 1,
            "POSITION": 0,
            "TEXCOORD_0": 2
          },
          "indices": 3,
          "material": 0,
          "mode": 4
        }
      ]
    },
    {
      "name": "Cube.013_Black_0",
      "primitives": [
        {
          "attributes": {
            "NORMAL": 5,
            "POSITION": 4,
            "TEXCOORD_0": 6
          },
          "indices": 7,
          "material": 1,
          "mode": 4
        }
      ]
    },
    {
      "name": "Cube.013_Screen_0",
      "primitives": [
        {
          "attributes": {
            "NORMAL": 9,
            "POSITION": 8,
            "TEXCOORD_0": 10
          },
          "indices": 11,
          "material": 2,
          "mode": 4
        }
      ]
    },
    {
      "name": "BodyLow.001_FrogMaterial.001_0",
      "primitives": [
        {
          "attributes": {
            "NORMAL": 13,
            "POSITION": 12,
            "TANGENT": 14,
            "TEXCOORD_0": 15
          },
          "indices": 16,
          "material": 3,
          "mode": 4
        }
      ]
    }
  ],
  "nodes": [
    {
      "children": [
        1
      ],
      "matrix": [
        1.0,
        0.0,
        0.0,
        0.0,
        0.0,
        2.220446049250313e-16,
        -1.0,
        0.0,
        0.0,
        1.0,
        2.220446049250313e-16,
        0.0,
        0.0,
        0.0,
        0.0,
        1.0
      ],
      "name": "Sketchfab_model"
    },
    {
      "children": [
        2
      ],
      "matrix": [
        1.0,
        0.0,
        0.0,
        0.0,
        0.0,
        0.0,
        1.0,
        0.0,
        0.0,
        -1.0,
        0.0,
        0.0,
        0.0,
        0.0,
        0.0,
        1.0
      ],
      "name": "428af3453b3e43de9901f14670e98630.fbx"
    },
    {
      "children": [
        3,
        5,
        7,
        10
      ],
      "name": "RootNode"
    },
    {
      "children": [
        4
      ],
      "matrix": [
        -751.9268130314018,
        -5.7192846385484344e-11,
        56.28087610603596,
        0.0,
        -2.443857107438804e-07,
        74.90295410156243,
        -3.2649791089020555e-06,
        0.0,
        -7.464008131518193,
        -4.371139075154126e-06,
        -99.72104620757729,
        0.0,
        1172.0225830078125,
        740.7006225585938,
        -569.9344482421875,
        1.0
      ],
      "name": "Plane"
    },
    {
      "mesh": 0,
      "name": "Plane_Text_0"
    },
    {
      "children": [
        6
      ],
      "matrix": [
        -7.275835891669355,
        -0.41009798102485584,
        99.73413198840956,
        0.0,
        0.03776170474911191,
        99.99914375407253,
        0.413942489912094,
        0.0,
        -99.73496037041264,
        0.06777907436518076,
        -7.275617622460914,
        0.0,
        1029.790771484375,
        1321.890380859375,
        -3383.153076171875,
        1.0
      ],
      "name": "Camera"
    },
    {
      "name": "Object_6"
    },
    {
      "children": [
        8,
        9
      ],
      "matrix": [
        2005.6777554330054,
        -1.0604326791868677e-05,
        -195.89327617054434,
        0.0,
        -3.881107353702007,
        -6.484297436154612e-06,
        -39.737202000698325,
        0.0,
        -1.2525067579559207e-05,
        1187.2272949218595,
        -0.00019250786153059455,
        0.0,
        1123.700927734375,
        1398.0264892578125,
        3354.0419921875,
        1.0
      ],
      "name": "Cube.013"
    },
    {
      "mesh": 1,
      "name": "Cube.013_Black_0"
    },
    {
      "mesh": 2,
      "name": "Cube.013_Screen_0"
    },
    {
      "children": [
        11
      ],
      "matrix": [
        34.486770762632034,
        0.0,
        -5.800500280355917,
        0.0,
        -5.800500280355911,
        -1.5286387137816998e-06,
        -34.486770762632005,
        0.0,
        -2.5354792943577653e-07,
        34.9711761474609,
        -1.5074646805554386e-06,
        0.0,
        -369.27911376953125,
        771.9601440429688,
        139.2617950439453,
        1.0
      ],
      "name": "BodyLow.001"
    },
    {
      "mesh": 3,
      "name": "BodyLow.001_FrogMaterial.001_0"
    }
  ],
  "samplers": [
    {
      "magFilter": 9729,
      "minFilter": 9987,
      "wrapS": 10497,
      "wrapT": 10497
    }
  ],
  "scene": 0,
  "scenes": [
    {
      "name": "Sketchfab_Scene",
      "nodes": [
        0
      ]
    }
  ],
  "textures": [
    {
      "sampler": 0,
      "source": 0
    },
    {
      "sampler": 0,
      "source": 1
    },
    {
      "sampler": 0,
      "source": 2
    },
    {
      "sampler": 0,
      "source": 3
    },
    {
      "sampler": 0,
      "source": 4
    }
  ]
}
